<?xml version="1.0" encoding="UTF-8"?>
<svg xmlns="http://www.w3.org/2000/svg" version="1.1" viewBox="0 0 1024 1024">
  <!-- Generator: Adobe Illustrator 29.4.0, SVG Export Plug-In . SVG Version: 2.1.0 Build 152)  -->
  <defs>
    <style>
      .st0 {
        fill: #28270e;
      }

      .st1 {
        fill: #39381c;
      }

      .st2 {
        fill: #706f39;
      }

      .st3 {
        fill: #2d2c15;
      }
    </style>
  </defs>
  <g id="Layer_4">
    <path class="st2" d="M172.89,717.51c.13-.49,1.15-8.24-.88-7.89-7.59,2.1-21.3,5.35-29.98,7.16-26.8,4.67-57.66,4.36-83.32-6.43-23.4-8.82-33.87-25.69-39.43-48.68-2.51-10.4-2.95-21.25-.69-31.71,24.49-113.52,279.68-314.31,453.19-378.61,130.07-48.2,276.28-72.37,417.63-26.34,82.19,26.76,120.81,145.49,114.13,219.87-5.95,66.32-55.5,137.02-57.25,146.23-3.77,19.88,3.79,39.91,3.57,39.93-30.29,3.71-777.07,86.83-776.98,86.48Z"/>
    <g id="Layer_5">
      <path class="st3" d="M172.89,717.51c-5.66,25.55,1.77,44.82,1.77,44.82.75,2.21,3.83,10.47,8.63,17.34,12.26,17.55,31.69,22.92,39.06,22.2,83.17-8.15,693.62-77.39,693.62-77.39,2.79-.53,13.04-2.3,22.6-9.99,11.68-9.39,15.73-22.31,17.11-26.9,0,0,12.22-24.4-5.81-56.56-2.97-5.31-776.82,85.79-776.98,86.48Z"/>
    </g>
    <path class="st1" d="M148.54,527.52c58.15-91.74,197.47-178.36,337.75-242.41,183-83.55,381.89-58.05,406.72-21.91,0,0-68.57-12.6-232.84,11.85-269.02,40.04-522.96,270.32-511.64,252.46Z"/>
    <path class="st1" d="M172.74,709.98c33.88-14.33,83.45-37.66,141.78-69.86,129.23-71.33,181.23-115.89,202.44-126.11,8.65-4.17-42.94,76.16-137.11,136.62-38.96,25.02-62,43.21-91.38,54.23l-115.57,12.85c-.28-1.93-.49-6.54-.17-7.74Z"/>
  </g>
  <g id="Layer_3">
    <sodipodi:namedview id="namedview3159" bordercolor="#666666" borderopacity="1" gridtolerance="10" guidetolerance="10" objecttolerance="10" pagecolor="#ffffff" showgrid="false"/>
    <g id="g3165">
      <g id="g3167">
        <g id="g3169">
          <path id="path3175" class="st0" d="M748.1,367.83c.83-.49,1.67-.98,2.52-1.42.84-.47,1.72-.88,2.58-1.31.87-.42,1.76-.8,2.64-1.21l.43-.2.48.12c1,.26,2,.53,2.99.8.98.31,1.98.57,2.94.93l2.9,1.04c.94.42,1.91.77,2.83,1.25l-.02.06h0s-.02.06-.02.06l-.18-.04-11.8-2.91-10.49,4.46-.16.07-.06-.11c.78-.59,1.62-1.06,2.43-1.6M776.84,350.44l.02.2s.06,5.46-.09,5.2c-.14-.27-2.66-3.23-2.66-3.23l2.73-2.17ZM775.76,360.62c4.19-1.26,5.86-7.19,11.61-5.93,0,0-7.31-8-10.46-6.15-2.02,1.19-6.42,4.57-9.32,6.85l-7.21,4.56,5.17-1.82c1.68,1.18,6,3.75,10.21,2.49M733.42,356.06l3.18,1.57s-1.91,3.41-1.99,3.7c-.09.29-1.16-5.07-1.16-5.07l-.02-.2ZM735.3,364.71c4.12.38,7.66-2.61,9.24-4.2l5.33,1.06-4.67-2.12c-1.46-.75-10.27-5.25-13.44-6.33-3.46-1.18-9.02,8.12-9.02,8.12,5.38-2.38,8.21,3.09,12.56,3.48M834.5,350.69c-16.04-10.34-36.63,6.16-36.63,6.16,0,0-6.81-5.7-6.52-12.07.29-6.37,35.21-13.22,48.73,3.16,21.37,25.88-21.87,81.06-21.87,81.06,28.37-46.11,24.56-72.97,16.29-78.31M806.4,434.16c-1.21,2.84-2.26,5.54-3.18,8.06-.42,1.27-.82,2.48-1.2,3.63-.34,1.16-.65,2.27-.95,3.31-.5,2.09-.92,3.92-1.1,5.45-.26,1.52-.34,2.73-.4,3.55-.07.82-.1,1.26-.1,1.26,0,0-.02-.44-.05-1.26-.02-.82-.13-2.04.01-3.58.05-1.55.31-3.42.62-5.56.21-1.07.43-2.2.66-3.4.31-1.19.63-2.43.97-3.73.75-2.59,1.64-5.38,2.75-8.28,1.09-2.91,2.32-5.95,3.7-9.06,1.37-3.11,2.81-6.31,4.35-9.54,1.52-3.22,3.07-6.5,4.61-9.77,3.1-6.53,6.03-13.1,8.19-19.39,1.07-3.14,1.89-6.22,2.48-9.15.19-1.47.49-2.91.52-4.29.03-.69.11-1.38.11-2.05-.03-.67-.05-1.32-.07-1.96,0-.65-.13-1.26-.22-1.87-.11-.6-.15-1.21-.31-1.77-.35-1.11-.54-2.23-1.05-3.17-.22-.48-.43-.95-.63-1.4-.21-.45-.52-.83-.76-1.23-.25-.39-.5-.77-.73-1.13-.24-.36-.55-.64-.8-.94-.53-.58-.96-1.14-1.42-1.57-.48-.42-.88-.77-1.21-1.06-.66-.57-1.01-.88-1.01-.88,0,0,.39.27,1.11.78.36.25.81.57,1.33.94.51.38,1.01.92,1.61,1.48.28.29.64.57.91.92.27.35.56.72.86,1.1.28.39.64.77.9,1.22.25.45.52.92.79,1.41.62.95.92,2.08,1.39,3.23.23.58.3,1.21.46,1.83.13.63.32,1.27.35,1.95.4,2.67.27,5.6-.09,8.67-.47,3.05-1.15,6.25-2.18,9.48-1.03,3.23-2.18,6.54-3.58,9.83-1.36,3.3-2.87,6.61-4.39,9.9-3.15,6.53-6.3,13.06-9.26,19.18-1.44,3.07-2.81,6.03-4.01,8.87M734.38,464.75c-.23-.79-.54-1.96-1.11-3.4-.48-1.46-1.26-3.17-2.17-5.12-.5-.96-1.03-1.98-1.59-3.05-.6-1.05-1.24-2.16-1.9-3.32-1.4-2.28-2.97-4.72-4.72-7.26-1.75-2.54-3.69-5.17-5.71-7.89-4.12-5.41-8.52-11.17-12.91-16.94-2.15-2.92-4.29-5.86-6.28-8.82-2.03-2.94-3.83-5.95-5.48-8.91-1.65-2.96-2.96-5.96-4.03-8.85-.96-2.93-1.68-5.78-1.82-8.48-.1-.67-.04-1.33-.04-1.98.03-.65-.02-1.28.09-1.89.23-1.22.3-2.39.72-3.45.17-.53.33-1.04.49-1.54.17-.49.44-.94.64-1.38.21-.44.42-.85.62-1.25.2-.4.49-.74.71-1.08.48-.67.86-1.29,1.28-1.77.44-.47.81-.86,1.12-1.19.61-.64.93-.99.93-.99,0,0-.28.37-.81,1.06-.27.35-.59.78-.97,1.28-.36.52-.67,1.15-1.07,1.83-.18.35-.43.69-.59,1.09-.16.4-.32.82-.49,1.25-.16.44-.38.88-.5,1.36-.11.48-.22.98-.34,1.5-.31,1.02-.27,2.15-.39,3.31-.05.58.04,1.19.05,1.8.04.61.02,1.24.16,1.87.11.63.21,1.28.32,1.94.13.65.34,1.31.52,1.98.31,1.35.89,2.7,1.37,4.1,1.16,2.76,2.59,5.6,4.26,8.47,3.38,5.72,7.56,11.57,11.91,17.35,2.17,2.9,4.34,5.8,6.48,8.65,2.15,2.85,4.2,5.7,6.17,8.47,1.98,2.77,3.79,5.5,5.44,8.13,1.67,2.62,3.1,5.17,4.36,7.56.59,1.21,1.16,2.37,1.69,3.47.47,1.13.91,2.2,1.33,3.2.74,2.04,1.37,3.82,1.72,5.33.45,1.48.59,2.69.73,3.5.13.81.21,1.25.21,1.25,0,0-.12-.42-.35-1.22M672.61,364.89c10.4-19.42,45.59-19.51,47.16-13.34.33,1.31.34,2.67.15,4.01l-7.26,8.23c-6.82-2.72-23.4-7.72-34.02,2.67-7.04,6.88-5.39,33.97,31.64,73.46,0,0-53.52-45.44-37.66-75.03M732.15,345.64c3.49.86,15.81,3.67,24.17,2.82,1.06-.11,2.05-.27,2.91-.49,8.45-2.14,14.21-4.45,16.35-5.37l28.95,24.62-20.13,9.39c-3.37-.91-20.28-5.39-26.39-4.77-.13.01-.26.03-.38.05-3.41.49-10.02,3.07-16.41,5.56-4.98,1.94-10.13,3.95-11.75,4.11-2.08.21-12.28-4.07-21.47-8.55l24.13-27.38ZM773.25,398.59l-1.55-18.96h4.19s-2.64,18.96-2.64,18.96ZM742.54,383.06l4.07-.95,3.22,19.47-7.3-18.51ZM785.56,377.66c-3.27,25.98-8.01,54.71-10.31,56.96-5.98,3.86-21.07,3.68-23.05,1.85-1.92-1.94-15.2-32.05-23.7-51.88l1.84.21c2.69,5.89,16.63,36.23,19.17,38.84.29.3.7.56,1.21.78.35-.53.73-1.05,1.08-1.58.13-.17.26-.34.39-.51.79-1.06,1.62-2.09,2.48-3.1,1.43-1.65,3.72-3.3,5.56-4.84l.05.43c-1.92,1.79-3.77,3.65-5.48,5.63-1,1.17-1.97,2.36-2.87,3.61-.43.64-.89,1.25-1.31,1.91-.05.08-.11.18-.18.29-.44.73-1.09,1.92-1.4,2.53.8-.33,1.94-1.52,2.67-1.9.74-.38,1.43-.8,2.15-1.2.22-.13.43-.27.65-.4,3.87.43,9.02.1,12.77-.56,1.18-.21,2.25-.45,3.2-.72.41.24.82.49,1.25.72.67.34,1.31.7,2,1.01.69.32,1.38.64,2.13.9-.24-.52-.51-1-.79-1.48-.08-.13-.15-.26-.23-.39-.36-.61-.77-1.17-1.15-1.76-.8-1.15-1.66-2.23-2.56-3.29-.9-1.06-1.85-2.07-2.83-3.06-.79-.79-1.88-.98-2.72-1.74l-1.57-16.75,2.2,15.53c-.1.23,1.18.94,1.97,1.74.98.99,1.93,2,2.83,3.06.55.65,1.08,1.32,1.6,2,.32.42.65.85.95,1.29.17.26.34.51.5.76,1.04-.63,1.74-1.34,2.07-2.14,4.9-11.94,8.49-41.14,8.64-42.38l-.64-.19,1.42-.19c.01-.1.01-.09,0,0M782.04,422.7c.74-4.07,1.47-8.53,2.16-13.01,3.01-.91,5.96-1.95,8.84-3.11.31,3.8.45,8.09.35,12.1-3.66,1.57-7.44,2.91-11.34,4.02M777.93,439.3c1.1-2.13,2.36-7.39,3.62-14,3.91-1.07,7.72-2.36,11.4-3.87.31,4.02.41,8.59.19,12.68-4.86,2.11-9.94,3.88-15.21,5.2M793.09,391.53c.32,3.81.5,8.07.44,12.12-2.9,1.24-5.87,2.34-8.92,3.31.68-4.52,1.31-8.98,1.86-13.01,2.24-.74,4.45-1.54,6.61-2.41M793.67,388.73c-2.22.93-4.5,1.79-6.84,2.58.87-6.45,1.48-11.4,1.68-13.05,1.56-.55,3.11-1.12,4.63-1.73.34,3.83.54,8.1.52,12.21M718.17,382.46c1.55.33,3.82.77,6.68,1.2.27.64,2.36,5.62,5.26,12.43-3.8-.54-6.58-1.11-8.06-1.44-1.51-4.12-2.84-8.39-3.88-12.18M722.3,397.24c1.94.42,5,1,8.95,1.5,1.64,3.84,3.47,8.1,5.34,12.41-4.97-.58-8.62-1.32-10.39-1.73-1.52-4.09-2.87-8.39-3.9-12.19M726.42,412.02c2.31.5,6.22,1.23,11.31,1.77,1.86,4.27,3.73,8.51,5.46,12.36-6.21-.56-10.76-1.48-12.83-1.96-1.57-4.08-2.94-8.44-3.94-12.16M730.55,426.81c2.67.58,7.5,1.45,13.82,1.91,2.99,6.57,5.42,11.6,6.45,13.01-7.72-.44-13.51-1.68-16.07-2.31-1.68-4.1-3.16-8.7-4.19-12.61M767.43,455.41c-13.99,1.42-25.13-.76-28.77-1.62-1.6-3.84-3-8.22-3.97-11.92,4.83,1.06,16.68,3.37,31.51,1.87h0c9.41-.95,18.37-3.45,26.73-6.89.27,3.83.33,8.14.07,11.95-7.97,3.48-16.58,5.7-25.58,6.61M769.01,470.61h0c-12.37,1.25-22.23-.74-25.9-1.65-1.77-3.86-3.31-8.64-4.33-12.58,4.55,1.01,15.33,2.84,28.89,1.47,8.83-.89,17.28-3.01,25.17-6.28.26,4.06.26,8.76-.15,12.63-7.43,3.26-15.37,5.58-23.68,6.42M770.5,484.76c-11.19,1.13-20.03-.55-23.37-1.34-1.74-3.58-3.25-8.25-4.2-12.05,4.26.95,14.02,2.81,26.32,1.57h0c8.24-.83,16.15-2.92,23.57-6.03.25,4.27.13,8.69-.38,12.11-6.91,3.04-14.29,4.98-21.94,5.75M791.89,494.23c-6.3,2.76-12.97,4.51-19.84,5.2-9.49.96-17.02-.35-20.36-1.12-1.98-3.16-3.67-8.24-4.67-12.31,3.97.9,12.68,2.41,23.73,1.3h0c7.64-.77,15.02-2.71,21.96-5.65.22,4.62-.05,9.42-.83,12.59M791.02,509.59c-5.58,2.39-11.43,3.9-17.4,4.51-7.4.75-13.4-.08-16.74-.77-2.51-1.87-4.65-7.95-5.75-12.6,3.66.83,11.36,2.12,21.17,1.13,7.04-.71,13.87-2.48,20.34-5.26.18,5.18-.35,10.62-1.62,12.99M700.85,379.27c.1.8.26,1.62.44,2.46.38,1.67.92,3.41,1.57,5.19.63,1.78,1.48,3.57,2.32,5.39.86,1.81,1.83,3.63,2.85,5.43,1,1.8,2.03,3.6,3.09,5.35,1.05,1.76,2.09,3.49,3.1,5.17,2.02,3.36,3.87,6.53,5.28,9.33.72,1.39,1.33,2.7,1.82,3.87.51,1.16.88,2.21,1.16,3.07.29.86.46,1.55.56,2.03.11.47.17.72.17.72,0,0-.11-.24-.31-.68-.19-.45-.52-1.08-.94-1.89-.42-.8-.96-1.76-1.61-2.85-.64-1.09-1.43-2.29-2.28-3.61-1.76-2.61-3.81-5.65-6.01-8.91-1.08-1.64-2.24-3.33-3.32-5.1-1.1-1.75-2.18-3.57-3.22-5.39-2.01-3.69-3.85-7.5-5-11.27-.62-1.87-1.01-3.74-1.28-5.52-.27-1.78-.32-3.5-.22-5.08,0-.79.16-1.54.25-2.26.12-.71.31-1.38.45-2.01.37-1.24.77-2.3,1.21-3.15.37-.86.82-1.46,1.08-1.9.27-.43.41-.65.41-.65,0,0-.1.24-.27.71-.17.46-.47,1.13-.69,2-.29.85-.48,1.92-.68,3.13-.14,1.22-.23,2.6-.15,4.09.05.75.09,1.52.23,2.32M790.07,523.64c-3.74,1.89-9.11,3.3-14.74,3.87-6.07.61-11.69.17-14.68-1.16-2.48-1.1-4.46-6.6-5.42-10.84,3.34.77,10.05,1.88,18.64,1.02,6.43-.65,12.71-2.3,18.7-4.91.1,5.43-.75,11.13-2.5,12.02M815.07,365.37c-.22-1.48-.58-2.81-.97-3.98-.44-1.15-.85-2.16-1.3-2.93-.39-.81-.82-1.41-1.08-1.82-.27-.42-.41-.64-.41-.64,0,0,.19.19.53.56.34.37.9.87,1.43,1.64.6.74,1.2,1.7,1.82,2.84.26.59.59,1.2.84,1.88.22.68.53,1.39.69,2.16.42,1.52.7,3.22.8,5.02.1,1.8.09,3.71-.14,5.66-.37,3.92-1.41,8.02-2.64,12.04-.66,2-1.35,3.99-2.08,5.93-.7,1.95-1.5,3.83-2.23,5.66-1.5,3.63-2.9,7.03-4.1,9.93-.57,1.46-1.09,2.79-1.51,3.99-.42,1.2-.76,2.24-1.01,3.12-.25.87-.44,1.56-.54,2.04-.11.47-.17.73-.17.73,0,0,0-.26.02-.74,0-.48.03-1.19.14-2.1.1-.9.25-2,.52-3.24.24-1.25.58-2.64,1.01-4.16.83-3.03,2-6.51,3.31-10.2.65-1.84,1.32-3.75,2-5.68.69-1.93,1.34-3.9,1.96-5.87.63-1.96,1.22-3.94,1.7-5.89.46-1.95.94-3.87,1.2-5.74.29-1.87.47-3.68.51-5.4,0-.86,0-1.69-.06-2.49-.02-.81-.13-1.58-.23-2.32M829.3,334.35c-19.3-6.3-38.09,1.37-45.86,5.32l-5.74,1.27-1.56-1.32s-4.49,2.08-10.57,4l-11.49,2.53c-9.07.27-21.86-3.06-22-3.09l-.93-.24-2.49,2.83-2.84-.08c-6.94-2.19-27.52-7.13-46.09,3.92-26.93,16.03-13.17,50.09-2.31,64.02,18.88,24.21,70.67,66.45,66.72,110.7,0,0,2.2,1.43,5.07,2.87l.03.15.24-.02c.41.2.84.41,1.27.61h0s.21.11.54.24c1.61.71,3.3,1.34,4.87,1.69,4.89,1.45,12.57,3.06,20.81,2.22,5.65-.57,11.57-2.29,17.04-6,4.82-1.32,10.17-7.37,10.17-7.37-13.8-42.28,27.22-94.8,40.19-122.54,7.46-15.96,14.8-51.96-15.06-61.7"/>
        </g>
      </g>
    </g>
  </g>
</svg>